<?xml version="1.0" standalone="no"?><!DOCTYPE svg PUBLIC "-//W3C//DTD SVG 1.1//EN" "http://www.w3.org/Graphics/SVG/1.1/DTD/svg11.dtd"><svg t="1726847568729" class="icon" viewBox="0 0 1024 1024" version="1.1" xmlns="http://www.w3.org/2000/svg" p-id="3595" xmlns:xlink="http://www.w3.org/1999/xlink" width="200" height="200"><path d="M0 577c0 228.9 185.5 414.4 414.4 414.4S828.8 805.9 828.8 577 643.3 162.6 414.4 162.6 0 348.1 0 577z m0 0" fill="#E9EAEB" p-id="3596"></path><path d="M877.6 308.8v-195c0-17.2-6.9-33.8-19-46-12.2-12.2-28.7-19-46-19H406.2c-35.9 0-65 29.1-65 65v81.3H113.7c-35.9 0-64.9 29.1-64.9 65v292.5c0 35.9 29.1 65 65 65h65v106.1c0 6.6 4 12.6 10.2 15.1 6.1 2.5 13.2 1 17.8-3.8l113.3-117.4h118.7v48.8c0 35.9 29.1 65 65 65h248.7l113.4 117.3c4.6 4.8 11.6 6.2 17.8 3.8 6.1-2.5 10.2-8.4 10.2-15.1v-106h48.9c35.9 0 65-29.1 65-65V373.8c0-35.9-29.1-65-65-65h-65.2z m0 0" fill="#FFFFFF" p-id="3597"></path><path d="M113.7 195.1h390.1c35.9 0 65 29.1 65 65v292.5c0 35.9-29.1 65-65 65H320.1L206.6 735c-4.6 4.8-11.6 6.2-17.8 3.8-6.1-2.5-10.2-8.4-10.2-15.1v-106h-65c-35.9 0-64.9-29.1-64.9-65V260.1c0.1-35.8 29.1-64.9 65-65z m0 0" fill="#A3D4FF" p-id="3598"></path><path d="M195 756.3c-18 0-32.5-14.5-32.6-32.5V634h-48.8c-44.9 0-81.3-36.4-81.3-81.3V260.1c0-44.9 36.4-81.3 81.3-81.3h390.1c21.6 0 42.2 8.6 57.5 23.8 15.2 15.2 23.8 35.9 23.8 57.5v292.6c0 44.9-36.4 81.3-81.3 81.3H327L218.7 746.3c-6.2 6.4-14.7 10-23.7 10z m-81.2-544.9c-26.9 0-48.7 21.9-48.8 48.8v292.5c0 26.9 21.9 48.7 48.8 48.8H195v122.3l118.2-122.3h190.6c26.9 0 48.7-21.8 48.8-48.8V260.1c0-26.9-21.9-48.7-48.8-48.8l-390 0.1z m0 0" fill="#2A5082" p-id="3599"></path><path d="M520.1 471.4H406.3c-21.6 0-42.2-8.6-57.5-23.8-15.2-15.2-23.8-35.9-23.8-57.5V243.9h32.5v146.2c0 26.9 21.8 48.7 48.8 48.8h113.8v32.5z m373.7-162.6h-32.4v-195c0-26.9-21.8-48.7-48.8-48.8H406.3c-26.9 0-48.7 21.8-48.8 48.8v81.3H325v-81.3c0-21.5 8.6-42.2 23.8-57.5 15.2-15.2 35.9-23.8 57.5-23.8h406.4c21.6 0 42.2 8.6 57.5 23.8 15.2 15.2 23.8 35.9 23.8 57.5l-0.2 195zM763.9 591.4c-9.2 0-18-4-24.2-10.9l-96.9-109.1h-73.9v-32.5h88.7l106.7 120 0.5-120h48c26.9 0 48.7-21.9 48.8-48.8v-32.5H894v32.5c0 21.6-8.6 42.2-23.8 57.5-15.2 15.2-35.9 23.8-57.5 23.8H797l-0.4 87.6c0 13.5-8.4 25.6-21.1 30.3-3.6 1.4-7.6 2.1-11.6 2.1z m0 0" fill="#2A5082" p-id="3600"></path><path d="M877.5 870c-8.8 0-17.3-3.6-23.3-10L745.5 747.7H503.8c-21.6 0-42.2-8.6-57.5-23.8-15.2-15.2-23.8-35.9-23.8-57.5v-48.8h32.6v48.8c0 26.9 21.9 48.7 48.8 48.8h255.6l118.2 122.3V715.2h65c26.9 0 48.7-21.9 48.8-48.8V373.8c0-26.9-21.9-48.7-48.8-48.8H568.8v-32.5h373.9c44.9 0 81.3 36.4 81.3 81.3v292.6c0 21.6-8.6 42.2-23.8 57.5-15.2 15.2-35.9 23.8-57.5 23.8h-32.5v89.8c0 18-14.6 32.5-32.6 32.5h-0.1z m0 0" fill="#2A5082" p-id="3601"></path><path d="M422.5 455.1H455v113.8h-32.5V455.1z m32.6-48.8h-32.5v-32.5c0-44.9 36.4-81.3 81.3-81.3h16.3V325h-16.3c-26.9 0-48.7 21.8-48.8 48.8v32.5z m0 0" fill="#2A5082" p-id="3602"></path></svg>