<?xml version="1.0" standalone="no"?><!DOCTYPE svg PUBLIC "-//W3C//DTD SVG 1.1//EN" "http://www.w3.org/Graphics/SVG/1.1/DTD/svg11.dtd"><svg t="1726848117243" class="icon" viewBox="0 0 1024 1024" version="1.1" xmlns="http://www.w3.org/2000/svg" p-id="15655" xmlns:xlink="http://www.w3.org/1999/xlink" width="200" height="200"><path d="M512 97.28c240.128 0 435.2 194.56 435.2 435.2s-194.56 435.2-435.2 435.2-435.2-194.56-435.2-435.2 194.56-435.2 435.2-435.2z m0 67.072c-203.264 0-368.128 164.864-368.128 368.128s164.864 368.128 368.128 368.128 368.128-164.864 368.128-368.128-164.864-368.128-368.128-368.128z m-13.824 289.792c20.992 0 37.888 16.896 37.888 37.888v175.616c0 20.992-16.896 37.888-37.888 37.888-20.992 0-37.888-16.896-37.888-37.888V492.032c0.512-20.992 17.408-37.888 37.888-37.888z m-172.032 100.352c20.992 0 37.888 16.896 37.888 37.376v75.264c0 20.992-16.896 37.888-37.888 37.888s-37.888-16.896-37.888-37.888v-75.264c0.512-20.48 17.408-37.376 37.888-37.376zM670.72 353.792c20.992 0 37.888 16.896 37.888 37.888v275.968c0.512 20.992-15.872 37.888-36.352 38.912-20.992 0.512-37.888-15.872-38.912-36.352V391.68c-0.512-20.992 16.384-37.888 37.376-37.888z" fill="#71747A" p-id="15656"></path></svg>